<svg xmlns="http://www.w3.org/2000/svg" viewBox="0 0 64 64" width="64" height="64">
  <!-- Background -->
  <rect width="64" height="64" rx="8" fill="#00C7B7"/>
  
  <!-- Mobile phone outline -->
  <rect x="18" y="8" width="28" height="48" rx="3" fill="#FFFFFF"/>
  <rect x="20" y="10" width="24" height="44" rx="2" fill="#2C3E50"/>
  
  <!-- Screen -->
  <rect x="22" y="14" width="20" height="32" rx="1" fill="#34495E"/>
  
  <!-- Blynk logo elements (simplified) -->
  <!-- Signal waves -->
  <path d="M 28 22 L 32 26 L 28 30" fill="none" stroke="#00C7B7" stroke-width="2" stroke-linecap="round"/>
  <path d="M 36 22 L 32 26 L 36 30" fill="none" stroke="#00C7B7" stroke-width="2" stroke-linecap="round"/>
  
  <!-- Widgets on screen -->
  <rect x="24" y="34" width="6" height="6" rx="1" fill="#3498DB"/>
  <rect x="34" y="34" width="6" height="6" rx="1" fill="#E74C3C"/>
  <rect x="24" y="42" width="16" height="2" rx="1" fill="#2ECC71"/>
  
  <!-- Home button -->
  <circle cx="32" cy="50" r="2" fill="#95A5A6"/>
  
  <!-- Connection indicator (WiFi symbol) -->
  <path d="M 8 28 Q 12 24 16 28" fill="none" stroke="#FFFFFF" stroke-width="1.5" opacity="0.8"/>
  <path d="M 10 30 Q 12 28 14 30" fill="none" stroke="#FFFFFF" stroke-width="1.5" opacity="0.8"/>
  <circle cx="12" cy="32" r="1" fill="#FFFFFF" opacity="0.8"/>
  
  <!-- Cloud -->
  <ellipse cx="52" cy="10" rx="6" ry="4" fill="#FFFFFF" opacity="0.6"/>
  <ellipse cx="48" cy="12" rx="4" ry="3" fill="#FFFFFF" opacity="0.6"/>
  <ellipse cx="56" cy="12" rx="4" ry="3" fill="#FFFFFF" opacity="0.6"/>
</svg>
